<?xml version="1.0" encoding="UTF-8"?>
<svg version="1.1" xmlns="http://www.w3.org/2000/svg" width="563" height="125">
<path d="M0 0 C6.27 0 12.54 0 19 0 C19 9.57 19 19.14 19 29 C21.64 27.68 24.28 26.36 27 25 C33.12779422 22.95740193 39.80558152 23.17605021 45.8125 25.5625 C53.09917588 29.29692139 56.51409104 35.05997206 59.25390625 42.5859375 C62.59630199 53.40060017 61.49072903 64.94586555 56.875 75.1875 C53.16904337 82.09948949 47.61734052 87.20161234 40.0625 89.5625 C32.60026777 91.14539775 26.54434532 89.92923544 20 86 C18.2421875 84.36328125 18.2421875 84.36328125 17 83 C16.34 84.98 15.68 86.96 15 89 C10.05 89 5.1 89 0 89 C0 59.63 0 30.26 0 0 Z M19 45 C18.69130536 49.11734776 18.72159276 53.2475029 18.6875 57.375 C18.65849609 58.53773437 18.62949219 59.70046875 18.59960938 60.8984375 C18.59123047 62.0121875 18.58285156 63.1259375 18.57421875 64.2734375 C18.55963623 65.29872559 18.54505371 66.32401367 18.5300293 67.38037109 C18.75762711 70.12276153 18.75762711 70.12276153 20.89013672 71.81933594 C24.44965023 73.81121367 27.96282209 74.10833214 32 74 C35.70385339 72.63118462 36.72756532 71.45730106 38.75 68.0625 C41.86218364 60.43765008 42.03467324 52.73841677 39 45 C36.3239502 41.82219086 34.48358831 40.17251027 30.3125 39.6875 C25.93754084 40.100232 22.1841818 41.8158182 19 45 Z " fill="#FFFFFF" transform="translate(272,7)"/>
<path d="M0 0 C7.28667588 3.73442139 10.70159104 9.49747206 13.44140625 17.0234375 C16.78380199 27.83810017 15.67822903 39.38336555 11.0625 49.625 C7.38028177 56.49271494 1.83204521 61.64337797 -5.6796875 64 C-13.30978414 65.56514803 -19.26644702 64.69328901 -25.8125 60.4375 C-26.3075 59.9425 -26.3075 59.9425 -26.8125 59.4375 C-26.8125 68.3475 -26.8125 77.2575 -26.8125 86.4375 C-33.0825 86.4375 -39.3525 86.4375 -45.8125 86.4375 C-45.8125 57.7275 -45.8125 29.0175 -45.8125 -0.5625 C-40.5325 -0.5625 -35.2525 -0.5625 -29.8125 -0.5625 C-29.4825 1.0875 -29.1525 2.7375 -28.8125 4.4375 C-28.12542969 4.08816406 -27.43835938 3.73882812 -26.73046875 3.37890625 C-25.82941406 2.92386719 -24.92835937 2.46882813 -24 2 C-23.10667969 1.54753906 -22.21335937 1.09507813 -21.29296875 0.62890625 C-14.53797504 -2.61561829 -6.9820401 -2.77384955 0 0 Z M-26.8125 19.4375 C-27.12119464 23.55484776 -27.09090724 27.6850029 -27.125 31.8125 C-27.15400391 32.97523437 -27.18300781 34.13796875 -27.21289062 35.3359375 C-27.22126953 36.4496875 -27.22964844 37.5634375 -27.23828125 38.7109375 C-27.25286377 39.73622559 -27.26744629 40.76151367 -27.2824707 41.81787109 C-27.05487289 44.56026153 -27.05487289 44.56026153 -24.92236328 46.25683594 C-21.36284977 48.24871367 -17.84967791 48.54583214 -13.8125 48.4375 C-10.10864661 47.06868462 -9.08493468 45.89480106 -7.0625 42.5 C-3.95031636 34.87515008 -3.77782676 27.17591677 -6.8125 19.4375 C-9.4885498 16.25969086 -11.32891169 14.61001027 -15.5 14.125 C-19.87495916 14.537732 -23.6283182 16.2533182 -26.8125 19.4375 Z " fill="#FFFFFF" transform="translate(92.8125,32.5625)"/>
<path d="M0 0 C3.75420496 2.0613771 7.10346898 4.50036284 10.34765625 7.2890625 C8.85689191 10.5717557 6.96145304 13.21983691 4.72265625 16.0390625 C4.09101563 16.83828125 3.459375 17.6375 2.80859375 18.4609375 C2.32648438 19.06421875 1.844375 19.6675 1.34765625 20.2890625 C-1.47479744 19.17835245 -4.21926099 18.02164871 -6.96484375 16.7265625 C-13.76273143 14.07653849 -18.79585517 13.77035241 -25.65234375 16.2890625 C-27.00852874 17.41440355 -27.00852874 17.41440355 -26.71484375 20.3515625 C-26.69421875 21.3209375 -26.67359375 22.2903125 -26.65234375 23.2890625 C-21.21430356 26.10404801 -15.80520798 28.85240101 -10.12890625 31.15234375 C-1.33020893 34.7525982 6.15071459 37.81687787 11.34765625 46.2890625 C13.5013006 52.74999555 13.66085601 61.43094366 10.84765625 67.7265625 C6.29674396 75.10599319 -0.08423202 79.23390342 -8.31640625 81.62890625 C-22.69881653 84.47507409 -35.41101342 81.2194005 -47.82421875 73.8515625 C-49.65234375 72.2890625 -49.65234375 72.2890625 -50.7265625 70.4609375 C-50.60491935 66.90127472 -48.09200578 64.94463682 -45.71484375 62.5390625 C-45.23337891 62.03246094 -44.75191406 61.52585937 -44.25585938 61.00390625 C-43.06580421 59.75493746 -41.86047762 58.5205522 -40.65234375 57.2890625 C-37.32072695 57.96929981 -34.60163326 59.22638438 -31.58984375 60.7890625 C-25.40278886 63.98958413 -20.59502619 64.88604475 -13.65234375 64.2890625 C-10.50294913 63.40579103 -10.50294913 63.40579103 -8.65234375 61.2890625 C-7.73549745 58.33280983 -7.73549745 58.33280983 -8.65234375 55.2890625 C-14.29330099 50.76157317 -21.09505332 48.50423499 -27.77734375 45.90820312 C-35.59401844 42.71508025 -42.99412308 38.2510722 -46.65234375 30.2890625 C-48.78604741 23.01025781 -48.15214747 16.00413306 -44.65234375 9.2890625 C-35.61881099 -4.67185177 -14.25614007 -6.12551304 0 0 Z " fill="#FFFFFF" transform="translate(469.65234375,14.7109375)"/>
<path d="M0 0 C5.36811074 4.55849404 8.67192077 9.02383233 10 16 C10.25672062 19.51253781 10.23363676 23.00702674 10.1953125 26.52734375 C10.1924826 27.51626114 10.18965271 28.50517853 10.18673706 29.52406311 C10.17560142 32.66200195 10.15050903 35.79964839 10.125 38.9375 C10.11496165 41.07356357 10.1058373 43.20963164 10.09765625 45.34570312 C10.07568375 50.5639136 10.04119964 55.78190734 10 61 C4.72 61 -0.56 61 -6 61 C-6.66 59.02 -7.32 57.04 -8 55 C-9.10408203 55.63228516 -9.10408203 55.63228516 -10.23046875 56.27734375 C-11.20628906 56.82519531 -12.18210938 57.37304688 -13.1875 57.9375 C-14.15042969 58.48277344 -15.11335938 59.02804688 -16.10546875 59.58984375 C-22.82447665 62.86320657 -31.11973568 63.16827367 -38.25 60.9375 C-43.53895211 58.67845365 -46.61471034 54.45574076 -49.375 49.5625 C-50.99229268 42.93160003 -50.26659063 37.96997597 -47 32 C-39.86020783 23.22825533 -29.68409488 21.51348668 -19 20 C-15.64390801 19.80693228 -12.35420064 19.78690961 -9 20 C-10.91564057 16.36028292 -12.14190942 14.47871067 -16 13 C-23.27754885 12.08230322 -29.25266064 12.96127711 -35.84375 16.125 C-38 17 -38 17 -42 17 C-43.00508801 15.21118264 -44.00392736 13.41885304 -45 11.625 C-45.8353125 10.12839844 -45.8353125 10.12839844 -46.6875 8.6015625 C-48 6 -48 6 -48 4 C-33.31808907 -3.18476492 -15.30694495 -9.14504379 0 0 Z M-29.625 36.875 C-31.14709148 38.95507104 -31.14709148 38.95507104 -31.5625 41.5625 C-31.19856001 44.14792006 -31.19856001 44.14792006 -29.0625 45.875 C-23.9464426 47.75436803 -19.68605429 46.99615259 -14.640625 45.125 C-12.32267714 43.94136705 -10.71598206 42.96308347 -9 41 C-8.3386879 37.89131241 -8.50973872 35.12541568 -9 32 C-16.403295 31.58870583 -23.45802333 32.47001667 -29.625 36.875 Z " fill="#FFFFFF" transform="translate(245,35)"/>
<path d="M0 0 C6.6 0 13.2 0 20 0 C20.03738281 3.05765625 20.07476562 6.1153125 20.11328125 9.265625 C20.15949572 12.22777451 20.2107297 15.18979761 20.26245117 18.15185547 C20.29570011 20.21004553 20.32373214 22.26832676 20.34643555 24.32666016 C20.3799819 27.28587691 20.43229802 30.24425817 20.48828125 33.203125 C20.49467117 34.12305237 20.5010611 35.04297974 20.50764465 35.99078369 C20.61827672 40.9642354 20.61827672 40.9642354 22.29370117 45.58105469 C24.67882184 47.56450316 26.90672197 47.54177943 29.9296875 47.40234375 C33.59135408 46.69073685 36.39497436 44.60502564 39 42 C39.16041193 38.89914779 39.25963402 35.81812421 39.31640625 32.71484375 C39.33718735 31.78402481 39.35796844 30.85320587 39.37937927 29.8941803 C39.44497931 26.90869818 39.50380802 23.92312516 39.5625 20.9375 C39.6056753 18.91861024 39.64928925 16.8997298 39.69335938 14.88085938 C39.80150018 9.92066487 39.90049549 4.96040549 40 0 C46.27 0 52.54 0 59 0 C59 21.12 59 42.24 59 64 C53.72 64 48.44 64 43 64 C42.34 61.36 41.68 58.72 41 56 C40.01 56.928125 39.02 57.85625 38 58.8125 C31.76996339 64.08311097 25.81399766 65.61414258 17.6796875 65.34375 C11.93369048 64.60665417 7.74840976 62.3417622 4.125 57.8125 C-0.28245006 50.61867134 -0.28562426 42.48271794 -0.1953125 34.27734375 C-0.1924826 33.29125626 -0.18965271 32.30516876 -0.18673706 31.28919983 C-0.17563505 28.17183763 -0.15054945 25.05477383 -0.125 21.9375 C-0.11495729 19.81055105 -0.10583371 17.68359756 -0.09765625 15.55664062 C-0.0774389 10.3708892 -0.0382714 5.18577452 0 0 Z " fill="#FFFFFF" transform="translate(345,32)"/>
<path d="M0 0 C-0.28438952 1.89693861 -0.57783792 3.79252027 -0.875 5.6875 C-1.03742188 6.74324219 -1.19984375 7.79898438 -1.3671875 8.88671875 C-1.95893069 11.79794914 -2.8031806 14.28955607 -4 17 C-4.804375 16.835 -5.60875 16.67 -6.4375 16.5 C-14.13828465 15.41918812 -19.39579968 15.72044463 -26.54296875 19.02734375 C-31.67574316 23.14825166 -34.58261505 27.19985641 -35.57006836 33.82446289 C-35.88119558 38.23562037 -35.88444744 42.64251471 -35.875 47.0625 C-35.89315516 48.61136183 -35.91396664 50.16019492 -35.9375 51.70898438 C-35.99390357 55.47392272 -35.99573652 59.23321531 -36 63 C-42.27 63 -48.54 63 -55 63 C-55 41.88 -55 20.76 -55 -1 C-49.72 -1 -44.44 -1 -39 -1 C-38.34 2.96 -37.68 6.92 -37 11 C-36.01 9.7625 -35.02 8.525 -34 7.25 C-25.71022174 -2.25045581 -11.65828474 -5.18145989 0 0 Z " fill="#FFFFFF" transform="translate(182,33)"/>
<path d="M0 0 C4.47663127 2.15837579 6.98940477 4.44970553 9 9 C10.5939141 14.92025237 9.73076383 19.61143168 7 25 C3.26842654 28.73157346 -0.02193043 30.13884035 -5.25 30.3125 C-10.28057826 30.24695501 -12.96235776 28.98785526 -17 26 C-20.03863016 22.25235614 -20.84022526 18.79324219 -21 14 C-20.10125821 9.25753217 -18.92469199 5.90213853 -15.4375 2.5 C-10.36299875 -0.62277 -5.8904463 -0.59902844 0 0 Z " fill="#FFFFFF" transform="translate(531,67)"/>
</svg>
